<svg xmlns="http://www.w3.org/2000/svg" width="1000" height="1000" viewBox="0 0 1000 1000" version="1.1"><path d="" stroke="none" fill="#000000" fill-rule="evenodd"/><path d="M 736.061 81.034 C 728.506 85.198, 728.271 85.449, 714.043 104.500 C 693.355 132.200, 649.683 191.164, 646.473 195.729 C 644.838 198.054, 643.004 199.967, 642.398 199.979 C 641.791 199.990, 626.716 189.687, 608.898 177.083 C 567.065 147.492, 566.069 146.789, 529.500 120.991 C 512.450 108.963, 495.350 96.899, 491.500 94.183 C 480.601 86.492, 478.667 85.737, 470.988 86.171 C 462.491 86.651, 457.313 89.833, 452.957 97.251 C 450.061 102.184, 449.904 102.970, 450.347 110.310 L 450.819 118.120 443.340 129.810 C 439.226 136.240, 428.445 152.975, 419.382 167 C 410.319 181.025, 399.289 198.125, 394.871 205 C 390.453 211.875, 384.287 221.443, 381.169 226.262 C 378.051 231.081, 370.799 242.331, 365.054 251.262 C 353.639 269.006, 335.713 295.960, 325.194 311.195 C 321.512 316.527, 315.964 324.852, 312.865 329.695 C 309.765 334.538, 294.739 357.850, 279.473 381.500 C 264.207 405.150, 249.832 427.425, 247.528 431 C 245.224 434.575, 237.241 446.950, 229.788 458.500 C 222.335 470.050, 215.143 481.750, 213.806 484.500 C 211.714 488.803, 203.472 501.843, 176.201 544 C 164.240 562.490, 151.409 582.378, 112.989 641.979 C 101.829 659.293, 91.875 675.268, 90.871 677.479 C 89.562 680.360, 89.038 683.945, 89.022 690.124 C 88.983 705.603, 92.884 712.058, 109.378 723.806 C 115.495 728.163, 145.250 749.206, 175.500 770.569 C 243.108 818.314, 328.566 878.689, 359.979 900.899 C 389.824 922.001, 391.750 923, 402.603 923 C 413.174 923, 420.305 920.486, 426.221 914.674 C 428.574 912.362, 438.801 899.452, 448.948 885.985 C 459.094 872.518, 474.196 852.500, 482.509 841.500 C 490.821 830.500, 506.793 809.350, 518.002 794.500 C 529.210 779.650, 545.867 757.600, 555.017 745.500 C 564.166 733.400, 578.617 714.275, 587.130 703 C 595.643 691.725, 610.937 671.475, 621.117 658 C 650.848 618.647, 675.144 586.454, 701.621 551.329 C 727.837 516.548, 753.485 482.597, 770.992 459.500 C 776.828 451.800, 791.855 431.887, 804.385 415.250 L 827.166 385 831.833 384.978 C 838.113 384.948, 843.850 382.162, 848.276 376.990 C 852.939 371.544, 854.332 367.260, 853.805 359.988 C 853.306 353.083, 850.597 348.587, 844 343.715 C 836.477 338.159, 740.797 270.177, 723 257.742 C 721.625 256.782, 716 252.812, 710.500 248.922 C 705 245.031, 698.813 240.697, 696.750 239.291 C 694.688 237.885, 693 236.338, 693 235.853 C 693 235.369, 700.120 225.416, 708.823 213.736 C 726.105 190.542, 744.784 165.297, 752.408 154.832 C 755.884 150.060, 757.725 148.327, 758.882 148.738 C 759.772 149.053, 766.350 151.892, 773.500 155.047 C 780.650 158.202, 797.525 165.603, 811 171.494 C 824.475 177.385, 839.100 183.792, 843.500 185.731 C 847.900 187.671, 853.300 190.042, 855.500 191 C 857.700 191.958, 863.325 194.433, 868 196.500 C 872.675 198.567, 878.300 201.042, 880.500 202 C 882.700 202.959, 887.425 205.038, 891 206.621 C 896.500 209.057, 898.807 209.500, 906 209.500 C 913.799 209.500, 914.971 209.228, 920.220 206.193 C 927.296 202.104, 933.382 195.172, 936.006 188.212 C 938.906 180.523, 938.738 169.127, 935.626 162.444 C 932.129 154.934, 926.939 151.160, 910.274 144.009 C 902.148 140.522, 892.577 136.349, 889.006 134.734 C 885.434 133.120, 878.009 129.873, 872.506 127.518 C 867.002 125.164, 858.450 121.438, 853.500 119.238 C 839.228 112.895, 820.511 104.662, 807.500 99.004 C 800.900 96.135, 791.900 92.205, 787.500 90.273 C 783.100 88.340, 778.150 86.167, 776.500 85.444 C 774.850 84.721, 770.400 82.750, 766.612 81.064 C 760.546 78.366, 758.636 78.002, 750.612 78.018 C 742.383 78.034, 740.973 78.327, 736.061 81.034" stroke="none" fill="#ffffff" fill-rule="evenodd"/></svg>